<svg width="400" height="400" viewBox="0 0 400 400" fill="none" xmlns="http://www.w3.org/2000/svg">
<rect width="400" height="400" fill="#5EC191"/>
<path d="M107 123.32C131.24 154.4 176 212 176 212V284C176 290.6 181.4 296 188 296H212C218.6 296 224 290.6 224 284V212C224 212 268.64 154.4 292.88 123.32C294.255 121.548 295.106 119.426 295.334 117.195C295.562 114.964 295.16 112.714 294.172 110.7C293.184 108.687 291.65 106.992 289.746 105.807C287.842 104.622 285.643 103.996 283.4 104H116.48C106.52 104 100.88 115.4 107 123.32Z" fill="#27AE6D"/>
</svg>
