<svg width="400" height="400" viewBox="0 0 400 400" fill="none" xmlns="http://www.w3.org/2000/svg">
<rect width="400" height="400" fill="#37225B"/>
<path d="M200 338C276.215 338 338 276.215 338 200C338 123.785 276.215 62 200 62C123.785 62 62 123.785 62 200C62 276.215 123.785 338 200 338Z" fill="#663399"/>
<path d="M123.114 276.886C102.414 256.186 91.5713 228.586 91.5713 201.972L199.014 308.429C171.414 307.443 143.814 297.586 123.114 276.886ZM223.657 305.472L94.5284 176.343C105.371 128.043 148.743 91.5715 200 91.5715C236.471 91.5715 268.014 109.314 287.728 135.929L272.943 148.743C256.186 126.072 229.571 111.286 200 111.286C161.557 111.286 129.028 135.929 116.214 170.429L229.571 283.786C258.157 273.929 279.843 249.286 286.743 219.714H239.428V200H308.428C308.428 251.257 271.957 294.629 223.657 305.472Z" fill="white"/>
</svg>
