<svg width="1600" height="688" viewBox="0 0 1600 688" fill="none" xmlns="http://www.w3.org/2000/svg">
<g clip-path="url(#clip0_327_104)">
<rect width="1600" height="688" fill="#5EC191"/>
<path d="M879.667 199.56C938.92 275.533 1048.33 416.333 1048.33 416.333V592.333C1048.33 608.467 1061.53 621.667 1077.67 621.667H1136.33C1152.47 621.667 1165.67 608.467 1165.67 592.333V416.333C1165.67 416.333 1274.79 275.533 1334.04 199.56C1337.4 195.23 1339.48 190.042 1340.04 184.588C1340.6 179.135 1339.61 173.634 1337.2 168.712C1334.78 163.79 1331.03 159.646 1326.38 156.75C1321.72 153.854 1316.35 152.324 1310.87 152.333H902.84C878.493 152.333 864.707 180.2 879.667 199.56Z" fill="#27AE6D"/>
<path d="M360.372 184.82V248H344.982V221.99H321.042V248H305.652V184.82H321.042V209.57H344.982V184.82H360.372ZM394.342 248.72C389.422 248.72 384.982 247.67 381.022 245.57C377.122 243.47 374.032 240.47 371.752 236.57C369.532 232.67 368.422 228.11 368.422 222.89C368.422 217.73 369.562 213.2 371.842 209.3C374.122 205.34 377.242 202.31 381.202 200.21C385.162 198.11 389.602 197.06 394.522 197.06C399.442 197.06 403.882 198.11 407.842 200.21C411.802 202.31 414.922 205.34 417.202 209.3C419.482 213.2 420.622 217.73 420.622 222.89C420.622 228.05 419.452 232.61 417.112 236.57C414.832 240.47 411.682 243.47 407.662 245.57C403.702 247.67 399.262 248.72 394.342 248.72ZM394.342 235.4C397.282 235.4 399.772 234.32 401.812 232.16C403.912 230 404.962 226.91 404.962 222.89C404.962 218.87 403.942 215.78 401.902 213.62C399.922 211.46 397.462 210.38 394.522 210.38C391.522 210.38 389.032 211.46 387.052 213.62C385.072 215.72 384.082 218.81 384.082 222.89C384.082 226.91 385.042 230 386.962 232.16C388.942 234.32 391.402 235.4 394.342 235.4ZM500.877 197.78L487.287 248H470.277L462.357 215.42L454.167 248H437.247L423.567 197.78H438.957L446.067 233.69L454.527 197.78H470.817L479.367 233.51L486.387 197.78H500.877ZM549.488 184.82C556.148 184.82 561.968 186.14 566.948 188.78C571.928 191.42 575.768 195.14 578.468 199.94C581.228 204.68 582.608 210.17 582.608 216.41C582.608 222.59 581.228 228.08 578.468 232.88C575.768 237.68 571.898 241.4 566.858 244.04C561.878 246.68 556.088 248 549.488 248H525.818V184.82H549.488ZM548.498 234.68C554.318 234.68 558.848 233.09 562.088 229.91C565.328 226.73 566.948 222.23 566.948 216.41C566.948 210.59 565.328 206.06 562.088 202.82C558.848 199.58 554.318 197.96 548.498 197.96H541.208V234.68H548.498ZM614.069 248.72C609.149 248.72 604.709 247.67 600.749 245.57C596.849 243.47 593.759 240.47 591.479 236.57C589.259 232.67 588.149 228.11 588.149 222.89C588.149 217.73 589.289 213.2 591.569 209.3C593.849 205.34 596.969 202.31 600.929 200.21C604.889 198.11 609.329 197.06 614.249 197.06C619.169 197.06 623.609 198.11 627.569 200.21C631.529 202.31 634.649 205.34 636.929 209.3C639.209 213.2 640.349 217.73 640.349 222.89C640.349 228.05 639.179 232.61 636.839 236.57C634.559 240.47 631.409 243.47 627.389 245.57C623.429 247.67 618.989 248.72 614.069 248.72ZM614.069 235.4C617.009 235.4 619.499 234.32 621.539 232.16C623.639 230 624.689 226.91 624.689 222.89C624.689 218.87 623.669 215.78 621.629 213.62C619.649 211.46 617.189 210.38 614.249 210.38C611.249 210.38 608.759 211.46 606.779 213.62C604.799 215.72 603.809 218.81 603.809 222.89C603.809 226.91 604.769 230 606.689 232.16C608.669 234.32 611.129 235.4 614.069 235.4ZM695.854 222.08C695.854 223.52 695.764 225.02 695.584 226.58H660.754C660.994 229.7 661.984 232.1 663.724 233.78C665.524 235.4 667.714 236.21 670.294 236.21C674.134 236.21 676.804 234.59 678.304 231.35H694.684C693.844 234.65 692.314 237.62 690.094 240.26C687.934 242.9 685.204 244.97 681.904 246.47C678.604 247.97 674.914 248.72 670.834 248.72C665.914 248.72 661.534 247.67 657.694 245.57C653.854 243.47 650.854 240.47 648.694 236.57C646.534 232.67 645.454 228.11 645.454 222.89C645.454 217.67 646.504 213.11 648.604 209.21C650.764 205.31 653.764 202.31 657.604 200.21C661.444 198.11 665.854 197.06 670.834 197.06C675.694 197.06 680.014 198.08 683.794 200.12C687.574 202.16 690.514 205.07 692.614 208.85C694.774 212.63 695.854 217.04 695.854 222.08ZM680.104 218.03C680.104 215.39 679.204 213.29 677.404 211.73C675.604 210.17 673.354 209.39 670.654 209.39C668.074 209.39 665.884 210.14 664.084 211.64C662.344 213.14 661.264 215.27 660.844 218.03H680.104ZM724.403 248.72C720.023 248.72 716.123 247.97 712.703 246.47C709.283 244.97 706.583 242.93 704.603 240.35C702.623 237.71 701.513 234.77 701.273 231.53H716.483C716.663 233.27 717.473 234.68 718.913 235.76C720.353 236.84 722.123 237.38 724.223 237.38C726.143 237.38 727.613 237.02 728.633 236.3C729.713 235.52 730.253 234.53 730.253 233.33C730.253 231.89 729.503 230.84 728.003 230.18C726.503 229.46 724.073 228.68 720.713 227.84C717.113 227 714.113 226.13 711.713 225.23C709.313 224.27 707.243 222.8 705.503 220.82C703.763 218.78 702.893 216.05 702.893 212.63C702.893 209.75 703.673 207.14 705.233 204.8C706.853 202.4 709.193 200.51 712.253 199.13C715.373 197.75 719.063 197.06 723.323 197.06C729.623 197.06 734.573 198.62 738.173 201.74C741.833 204.86 743.933 209 744.473 214.16H730.253C730.013 212.42 729.233 211.04 727.913 210.02C726.653 209 724.973 208.49 722.873 208.49C721.073 208.49 719.693 208.85 718.733 209.57C717.773 210.23 717.293 211.16 717.293 212.36C717.293 213.8 718.043 214.88 719.543 215.6C721.103 216.32 723.503 217.04 726.743 217.76C730.463 218.72 733.493 219.68 735.833 220.64C738.173 221.54 740.213 223.04 741.953 225.14C743.753 227.18 744.683 229.94 744.743 233.42C744.743 236.36 743.903 239 742.223 241.34C740.603 243.62 738.233 245.42 735.113 246.74C732.053 248.06 728.483 248.72 724.403 248.72ZM818.68 184.82V197.15H801.94V248H786.55V197.15H769.81V184.82H818.68ZM857.274 197.24C863.034 197.24 867.654 199.16 871.134 203C874.614 206.78 876.354 212 876.354 218.66V248H861.054V220.73C861.054 217.37 860.184 214.76 858.444 212.9C856.704 211.04 854.364 210.11 851.424 210.11C848.484 210.11 846.144 211.04 844.404 212.9C842.664 214.76 841.794 217.37 841.794 220.73V248H826.404V181.4H841.794V204.53C843.354 202.31 845.484 200.54 848.184 199.22C850.884 197.9 853.914 197.24 857.274 197.24ZM934.389 222.08C934.389 223.52 934.299 225.02 934.119 226.58H899.289C899.529 229.7 900.519 232.1 902.259 233.78C904.059 235.4 906.249 236.21 908.829 236.21C912.669 236.21 915.339 234.59 916.839 231.35H933.219C932.379 234.65 930.849 237.62 928.629 240.26C926.469 242.9 923.739 244.97 920.439 246.47C917.139 247.97 913.449 248.72 909.369 248.72C904.449 248.72 900.069 247.67 896.229 245.57C892.389 243.47 889.389 240.47 887.229 236.57C885.069 232.67 883.989 228.11 883.989 222.89C883.989 217.67 885.039 213.11 887.139 209.21C889.299 205.31 892.299 202.31 896.139 200.21C899.979 198.11 904.389 197.06 909.369 197.06C914.229 197.06 918.549 198.08 922.329 200.12C926.109 202.16 929.049 205.07 931.149 208.85C933.309 212.63 934.389 217.04 934.389 222.08ZM918.639 218.03C918.639 215.39 917.739 213.29 915.939 211.73C914.139 210.17 911.889 209.39 909.189 209.39C906.609 209.39 904.419 210.14 902.619 211.64C900.879 213.14 899.799 215.27 899.379 218.03H918.639Z" fill="#C2E7D5"/>
<path d="M390.759 444.32L374.289 507.5H355.659L345.579 465.92L335.139 507.5H316.509L300.489 444.32H316.959L326.049 490.31L337.299 444.32H354.219L365.019 490.31L374.199 444.32H390.759ZM421.337 508.22C416.417 508.22 411.977 507.17 408.017 505.07C404.117 502.97 401.027 499.97 398.747 496.07C396.527 492.17 395.417 487.61 395.417 482.39C395.417 477.23 396.557 472.7 398.837 468.8C401.117 464.84 404.237 461.81 408.197 459.71C412.157 457.61 416.597 456.56 421.517 456.56C426.437 456.56 430.877 457.61 434.837 459.71C438.797 461.81 441.917 464.84 444.197 468.8C446.477 472.7 447.617 477.23 447.617 482.39C447.617 487.55 446.447 492.11 444.107 496.07C441.827 499.97 438.677 502.97 434.657 505.07C430.697 507.17 426.257 508.22 421.337 508.22ZM421.337 494.9C424.277 494.9 426.767 493.82 428.807 491.66C430.907 489.5 431.957 486.41 431.957 482.39C431.957 478.37 430.937 475.28 428.897 473.12C426.917 470.96 424.457 469.88 421.517 469.88C418.517 469.88 416.027 470.96 414.047 473.12C412.067 475.22 411.077 478.31 411.077 482.39C411.077 486.41 412.037 489.5 413.957 491.66C415.937 493.82 418.397 494.9 421.337 494.9ZM471.172 465.65C472.972 462.89 475.222 460.73 477.922 459.17C480.622 457.55 483.622 456.74 486.922 456.74V473.03H482.692C478.852 473.03 475.972 473.87 474.052 475.55C472.132 477.17 471.172 480.05 471.172 484.19V507.5H455.782V457.28H471.172V465.65ZM524.968 507.5L509.668 486.44V507.5H494.278V440.9H509.668V477.71L524.878 457.28H543.868L522.988 482.48L544.048 507.5H524.968ZM568.363 440.81C574.783 440.81 579.913 442.49 583.753 445.85C587.653 449.21 589.603 453.95 589.603 460.07C589.603 465.71 587.743 470.12 584.023 473.3C580.363 476.42 575.503 478.01 569.443 478.07L568.993 484.82H555.493L555.043 468.08H560.443C565.063 468.08 568.573 467.51 570.973 466.37C573.433 465.23 574.663 463.16 574.663 460.16C574.663 458.06 574.093 456.41 572.953 455.21C571.813 454.01 570.223 453.41 568.183 453.41C566.023 453.41 564.343 454.04 563.143 455.3C561.943 456.5 561.343 458.15 561.343 460.25H546.853C546.733 456.59 547.483 453.29 549.103 450.35C550.783 447.41 553.243 445.1 556.483 443.42C559.783 441.68 563.743 440.81 568.363 440.81ZM562.423 508.22C559.723 508.22 557.503 507.44 555.763 505.88C554.083 504.26 553.243 502.28 553.243 499.94C553.243 497.54 554.083 495.53 555.763 493.91C557.503 492.29 559.723 491.48 562.423 491.48C565.063 491.48 567.223 492.29 568.903 493.91C570.643 495.53 571.513 497.54 571.513 499.94C571.513 502.28 570.643 504.26 568.903 505.88C567.223 507.44 565.063 508.22 562.423 508.22Z" fill="#C2E7D5"/>
<path d="M393.223 270.58V299.35H333.163V330.43H378.103V358.36H333.163V418H297.253V270.58H393.223ZM448.007 270.58V418H412.097V270.58H448.007ZM509.941 390.28H556.981V418H474.031V270.58H509.941V390.28ZM680.159 270.58V299.35H641.099V418H605.189V299.35H566.129V270.58H680.159ZM734.091 299.35V329.17H782.181V356.89H734.091V389.23H788.481V418H698.181V270.58H788.481V299.35H734.091ZM886.974 418L856.314 362.35H847.704V418H811.794V270.58H872.064C883.684 270.58 893.554 272.61 901.674 276.67C909.934 280.73 916.094 286.33 920.154 293.47C924.214 300.47 926.244 308.31 926.244 316.99C926.244 326.79 923.444 335.54 917.844 343.24C912.384 350.94 904.264 356.4 893.484 359.62L927.504 418H886.974ZM847.704 336.94H869.964C876.544 336.94 881.444 335.33 884.664 332.11C888.024 328.89 889.704 324.34 889.704 318.46C889.704 312.86 888.024 308.45 884.664 305.23C881.444 302.01 876.544 300.4 869.964 300.4H847.704V336.94Z" fill="white"/>
</g>
<defs>
<clipPath id="clip0_327_104">
<rect width="1600" height="688" fill="white"/>
</clipPath>
</defs>
</svg>
