<svg width="1600" height="688" viewBox="0 0 1600 688" fill="none" xmlns="http://www.w3.org/2000/svg">
<rect width="1600" height="688" fill="#36205B"/>
<g clip-path="url(#clip0_327_104)">
<path d="M879.2 328H901.6V408H879.2V397.6C871.2 409.6 860.8 410.4 854.4 410.4C829.6 410.4 813.6 391.2 813.6 368C813.6 344 829.6 325.6 852.8 325.6C859.2 325.6 871.2 326.4 878.4 338.4V328H879.2ZM837.6 368C837.6 380.8 846.4 390.4 860 390.4C872.8 390.4 882.4 380.8 882.4 368C882.4 355.2 873.6 345.6 860 345.6C847.2 345.6 837.6 355.2 837.6 368ZM945.6 347.2V408H923.2V347.2H914.4V328H923.2V300.8H945.6V328H960.8V347.2H945.6ZM1013.6 347.2C1008 342.4 1003.2 341.6 1000.8 341.6C995.2 341.6 992 344 992 348C992 350.4 992.8 352.8 999.2 355.2L1004.8 356.8C1011.2 359.2 1020.8 361.6 1024.8 368C1027.2 371.2 1028.8 376 1028.8 381.6C1028.8 388.8 1026.4 396 1020 401.6C1013.6 407.2 1005.6 410.4 996 410.4C979.2 410.4 970.4 402.4 964.8 396.8L976.8 383.2C981.6 388 988 392.8 994.4 392.8C1000.8 392.8 1005.6 389.6 1005.6 384C1005.6 379.2 1001.6 376.8 998.4 376L993.6 374.4C988 372 981.6 369.6 976.8 364.8C972.8 360.8 970.4 356 970.4 349.6C970.4 341.6 974.4 335.2 978.4 331.2C984.8 326.4 992.8 325.6 999.2 325.6C1004.8 325.6 1014.4 326.4 1024.8 334.4L1013.6 347.2V347.2ZM1062.4 338.4C1070.4 327.2 1081.6 325.6 1088 325.6C1111.2 325.6 1127.2 344 1127.2 368C1127.2 392 1111.2 410.4 1087.2 410.4C1082.4 410.4 1070.4 409.6 1061.6 397.6V408H1040V273.6H1062.4V338.4V338.4ZM1060 368C1060 380.8 1068.8 390.4 1082.4 390.4C1095.2 390.4 1104.8 380.8 1104.8 368C1104.8 355.2 1096 345.6 1082.4 345.6C1068.8 345.6 1060 355.2 1060 368ZM1164 396L1125.6 328H1152L1176.8 373.6L1199.2 328H1224.8L1160.8 450.4H1135.2L1164 396ZM808 341.6H752V364H781.6C776.8 379.2 765.6 389.6 744.8 389.6C721.6 389.6 704.8 370.4 704.8 347.2C704.8 324 720.8 304 744 304C756.8 304 769.6 310.4 777.6 320.8L796 308.8C784 292 764.8 282.4 744 282.4C708.8 282.4 680 311.2 680 347.2C680 383.2 707.2 412 744 412C780.8 412 808 383.2 808 347.2C808.8 344.8 808 343.2 808 341.6V341.6Z" fill="white"/>
<path d="M576 344H520V360H558.4C552.8 384 535.2 404 512 412L420 320C429.6 292 456.8 272 488 272C512 272 533.6 284 547.2 302.4L559.2 292C543.2 270.4 517.6 256 488 256C446.4 256 411.2 285.6 402.4 324.8L508 430.4C546.4 420.8 576 385.6 576 344ZM400 344.8C400 367.2 408.8 388.8 425.6 405.6C442.4 422.4 464.8 431.2 486.4 431.2L400 344.8Z" fill="white"/>
<path d="M488 232C426.4 232 376 282.4 376 344C376 405.6 426.4 456 488 456C549.6 456 600 405.6 600 344C600 282.4 549.6 232 488 232ZM425.6 406.4C408.8 389.6 400 367.2 400 345.6L487.2 432C464.8 431.2 442.4 423.2 425.6 406.4ZM507.2 429.6L402.4 324.8C411.2 285.6 446.4 256 488 256C517.6 256 543.2 270.4 559.2 292L547.2 302.4C533.6 284 512 272 488 272C456.8 272 430.4 292 420 320L512 412C535.2 404 552.8 384 558.4 360H520V344H576C576 385.6 546.4 420.8 507.2 429.6Z" fill="#663399"/>
</g>
<defs>
<clipPath id="clip0_327_104">
<rect width="848" height="224" fill="white" transform="translate(376 232)"/>
</clipPath>
</defs>
</svg>
